<svg xmlns="http://www.w3.org/2000/svg" version="1.1" xmlns:xlink="http://www.w3.org/1999/xlink" xmlns:svgjs="http://svgjs.dev/svgjs" width="1000" height="1000" viewBox="0 0 1000 1000"><rect width="1000" height="1000" fill="#000000"></rect><g transform="matrix(0.7,0,0,0.7,149.57575757575756,282.1265587044535)"><svg viewBox="0 0 396 247" data-background-color="#ffffff" preserveAspectRatio="xMidYMid meet" height="623" width="1000" xmlns="http://www.w3.org/2000/svg" xmlns:xlink="http://www.w3.org/1999/xlink"><g id="tight-bounds" transform="matrix(1,0,0,1,0.2400000000000091,-0.09999999999999432)"><svg viewBox="0 0 395.52 247.2" height="247.2" width="395.52"><g><svg></svg></g><g><svg viewBox="0 0 395.52 247.2" height="247.2" width="395.52"><g transform="matrix(1,0,0,1,39.55199999999999,80.21246193758353)"><svg viewBox="0 0 316.416 86.77507612483294" height="86.77507612483294" width="316.416"><g><svg viewBox="0 0 316.416 86.77507612483294" height="86.77507612483294" width="316.416"><g><svg viewBox="0 0 316.416 86.77507612483294" height="86.77507612483294" width="316.416"><g><svg viewBox="0 0 316.416 86.77507612483294" height="86.77507612483294" width="316.416"><g><svg viewBox="0 0 316.416 86.77507612483294" height="86.77507612483294" width="316.416"><g><svg viewBox="0 0 316.416 55.05883446272991" height="55.05883446272991" width="316.416"><g transform="matrix(1,0,0,1,0,0)"><svg width="316.416" viewBox="1.2999999523162842 -35.45000076293945 206.5800018310547 35.95000076293945" height="55.05883446272991" data-palette-color="#ba3b0a"><path d="M4.42-2.95Q1.3-6.4 1.3-12.5 1.3-18.6 4.42-22.05 7.55-25.5 12.85-25.5 18.15-25.5 21.25-22.05 24.35-18.6 24.35-12.5 24.35-6.4 21.25-2.95 18.15 0.5 12.85 0.5 7.55 0.5 4.42-2.95ZM12.88-17.15Q10.05-17.15 10.05-12.55 10.05-7.95 12.88-7.95 15.7-7.95 15.7-12.55 15.7-17.15 12.88-17.15ZM38.35-16.35L38.35-0.3Q38.35 0.05 34.75 0.05L34.75 0.05Q29.75-0.1 29.75-0.5L29.75-0.5 29.75-16.7 28.45-16.7Q27.15-16.7 26.75-18.9L26.75-18.9Q26.65-19.55 26.65-20.2L26.65-20.2Q26.65-21.75 27.25-23.3L27.25-23.3Q28.15-25.5 30.05-25.5 31.95-25.5 33.45-24.6 34.95-23.7 35.45-22.8L35.45-22.8Q38.6-25.5 42.95-25.5 47.3-25.5 49.25-23.15 51.2-20.8 51.2-15.45L51.2-15.45 51.2-0.45Q51.2 0.15 46.92 0.15 42.65 0.15 42.65-0.45L42.65-0.45 42.65-14.9Q42.65-17.4 40.9-17.4L40.9-17.4Q40.4-17.4 39.5-16.98 38.6-16.55 38.35-16.35L38.35-16.35ZM74.35-1.35L74.35-1.35Q71.2 0.5 66.25 0.5 61.3 0.5 57.9-2.88 54.5-6.25 54.5-12.23 54.5-18.2 57.77-21.85 61.05-25.5 66.05-25.5 71.05-25.5 73.77-22.95 76.5-20.4 76.5-16.75L76.5-16.75Q76.5-8.65 67.2-8.65L67.2-8.65 63.75-8.65Q63.75-7.15 64.57-6.58 65.4-6 67-6L67-6Q70.5-6 73.65-7.6L73.65-7.6Q73.7-7.65 74.1-6.9L74.1-6.9Q75.3-4.75 75.3-3.28 75.3-1.8 74.35-1.35ZM68.1-15.8L68.1-15.8Q68.1-17.9 66.05-17.9L66.05-17.9Q65.1-17.9 64.42-17.32 63.75-16.75 63.75-15.65L63.75-15.65 63.75-14.1 66.45-14.1Q68.1-14.1 68.1-15.8ZM100.64-18L100.64-0.3Q100.64 0.3 96.44 0.3L96.44 0.3Q91.44 0.1 91.44-0.35L91.44-0.35 91.44-18.05 88.89-18.05Q87.89-18.05 87.89-21.5L87.89-21.5Q87.89-22.4 88.07-23.7 88.24-25 88.79-25L88.79-25 91.44-25 91.44-29.4Q91.44-30.4 95.67-30.4 99.89-30.4 99.89-29.6L99.89-29.6 99.89-26.4 99.94-25 104.19-25Q105.04-25 105.04-21.5 105.04-18 104.19-18L104.19-18 100.64-18ZM116.69-24.85L116.69-0.3Q116.69 0.1 112.11 0.1 107.54 0.1 107.54-0.25L107.54-0.25 107.54-24.8Q107.54-25.15 112.11-25.15 116.69-25.15 116.69-24.85L116.69-24.85ZM116.69-35.15L116.69-27.8Q116.69-27.45 112.11-27.45 107.54-27.45 107.54-27.75L107.54-27.75 107.54-34.95Q107.54-35.45 112.11-35.45 116.69-35.45 116.69-35.15L116.69-35.15ZM129.39-12.4L129.39-12.4Q129.39-7.5 133.09-7.5L133.09-7.5Q135.49-7.5 137.09-8.45L137.09-8.45Q137.84-8.45 138.31-5.88 138.79-3.3 138.79-2.38 138.79-1.45 138.54-1.15L138.54-1.15Q135.89 0.5 131.29 0.5 126.69 0.5 123.46-2.93 120.24-6.35 120.24-12.28 120.24-18.2 123.41-21.85 126.59-25.5 131.86-25.5 137.14-25.5 139.19-22.95L139.19-22.95Q139.64-22.4 139.64-21.33 139.64-20.25 139.24-18.7L139.24-18.7Q138.34-15.5 136.89-15L136.89-15Q136.69-14.95 136.31-14.95 135.94-14.95 135.39-15.55L135.39-15.55Q133.44-17.5 132.26-17.5 131.09-17.5 130.24-16.3 129.39-15.1 129.39-12.4ZM142.38-0.3L142.38-34.6Q142.38-35.4 146.93-35.4L146.93-35.4Q151.18-35.25 151.18-34.75L151.18-34.75 151.18-15.55 156.13-24.7Q156.48-25.45 160.38-25.45 164.28-25.45 165.38-24.95L165.38-24.95 158.88-14.35 166.38-0.3Q166.48-0.1 164.51 0.03 162.53 0.15 161.23 0.15L161.23 0.15Q156.43 0.15 156.08-0.3L156.08-0.3 151.13-11.4 151.13-0.35Q151.13 0.3 146.76 0.3 142.38 0.3 142.38-0.3L142.38-0.3ZM186.58-1.35L186.58-1.35Q183.43 0.5 178.48 0.5 173.53 0.5 170.13-2.88 166.73-6.25 166.73-12.23 166.73-18.2 170.01-21.85 173.28-25.5 178.28-25.5 183.28-25.5 186.01-22.95 188.73-20.4 188.73-16.75L188.73-16.75Q188.73-8.65 179.43-8.65L179.43-8.65 175.98-8.65Q175.98-7.15 176.81-6.58 177.63-6 179.23-6L179.23-6Q182.73-6 185.88-7.6L185.88-7.6Q185.93-7.65 186.33-6.9L186.33-6.9Q187.53-4.75 187.53-3.28 187.53-1.8 186.58-1.35ZM180.33-15.8L180.33-15.8Q180.33-17.9 178.28-17.9L178.28-17.9Q177.33-17.9 176.66-17.32 175.98-16.75 175.98-15.65L175.98-15.65 175.98-14.1 178.68-14.1Q180.33-14.1 180.33-15.8ZM203.48-18L203.48-0.3Q203.48 0.3 199.28 0.3L199.28 0.3Q194.28 0.1 194.28-0.35L194.28-0.35 194.28-18.05 191.73-18.05Q190.73-18.05 190.73-21.5L190.73-21.5Q190.73-22.4 190.9-23.7 191.08-25 191.63-25L191.63-25 194.28-25 194.28-29.4Q194.28-30.4 198.5-30.4 202.73-30.4 202.73-29.6L202.73-29.6 202.73-26.4 202.78-25 207.03-25Q207.88-25 207.88-21.5 207.88-18 207.03-18L207.03-18 203.48-18Z" opacity="1" transform="matrix(1,0,0,1,0,0)" fill="#ffffff" class="undefined-text-0" data-fill-palette-color="primary" id="text-0"></path></svg></g></svg></g><g transform="matrix(1,0,0,1,0,68.05690386735334)"><svg viewBox="0 0 316.416 18.7181722574796" height="18.7181722574796" width="316.416"><g transform="matrix(1,0,0,1,0,0)"><svg width="316.416" viewBox="1.9500000476837158 -38.599998474121094 882.3999633789062 52.19999694824219" height="18.7181722574796" data-palette-color="#ba3b0a"><path d="M1.95-34.75L26.2-34.75 26.2-30.1 16.95-30.1 16.95 0 11.25 0 11.25-30.1 1.95-30.1 1.95-34.75ZM30.05-13.9Q30.05-18.05 31.78-21.25 33.5-24.45 36.48-26.23 39.45-28 43.05-28L43.05-28Q46.3-28 48.73-26.73 51.15-25.45 52.6-23.55L52.6-23.55 52.6-27.55 58.35-27.55 58.35 0 52.6 0 52.6-4.1Q51.15-2.15 48.65-0.85 46.15 0.45 42.95 0.45L42.95 0.45Q39.4 0.45 36.45-1.38 33.5-3.2 31.78-6.48 30.05-9.75 30.05-13.9L30.05-13.9ZM52.6-13.8Q52.6-16.65 51.43-18.75 50.25-20.85 48.35-21.95 46.45-23.05 44.25-23.05L44.25-23.05Q42.05-23.05 40.15-21.98 38.25-20.9 37.08-18.82 35.9-16.75 35.9-13.9L35.9-13.9Q35.9-11.05 37.08-8.9 38.25-6.75 40.18-5.63 42.1-4.5 44.25-4.5L44.25-4.5Q46.45-4.5 48.35-5.6 50.25-6.7 51.43-8.83 52.6-10.95 52.6-13.8L52.6-13.8ZM89.45-27.55L76.75-13.75 89.45 0 81.75 0 71.55-11.85 71.55 0 65.85 0 65.85-37 71.55-37 71.55-15.5 81.55-27.55 89.45-27.55ZM118.8-14.45Q118.8-12.9 118.6-11.65L118.6-11.65 97.55-11.65Q97.8-8.35 100-6.35 102.2-4.35 105.4-4.35L105.4-4.35Q110-4.35 111.9-8.2L111.9-8.2 118.05-8.2Q116.8-4.4 113.53-1.98 110.25 0.45 105.4 0.45L105.4 0.45Q101.45 0.45 98.33-1.33 95.2-3.1 93.43-6.33 91.65-9.55 91.65-13.8L91.65-13.8Q91.65-18.05 93.38-21.28 95.1-24.5 98.23-26.25 101.35-28 105.4-28L105.4-28Q109.3-28 112.35-26.3 115.4-24.6 117.1-21.53 118.8-18.45 118.8-14.45L118.8-14.45ZM97.6-16.25L112.85-16.25Q112.8-19.4 110.6-21.3 108.4-23.2 105.15-23.2L105.15-23.2Q102.2-23.2 100.1-21.33 98-19.45 97.6-16.25L97.6-16.25ZM150.75-22.9L144.05-22.9 144.05-7.65Q144.05-6.1 144.78-5.43 145.5-4.75 147.25-4.75L147.25-4.75 150.75-4.75 150.75 0 146.25 0Q142.4 0 140.35-1.8 138.3-3.6 138.3-7.65L138.3-7.65 138.3-22.9 135.05-22.9 135.05-27.55 138.3-27.55 138.3-34.4 144.05-34.4 144.05-27.55 150.75-27.55 150.75-22.9ZM170.25-28Q173.4-28 175.88-26.65 178.35-25.3 179.78-22.65 181.2-20 181.2-16.25L181.2-16.25 181.2 0 175.55 0 175.55-15.4Q175.55-19.1 173.7-21.08 171.85-23.05 168.65-23.05L168.65-23.05Q165.45-23.05 163.57-21.08 161.7-19.1 161.7-15.4L161.7-15.4 161.7 0 156 0 156-37 161.7-37 161.7-24.35Q163.15-26.1 165.38-27.05 167.6-28 170.25-28L170.25-28ZM213.7-14.45Q213.7-12.9 213.5-11.65L213.5-11.65 192.45-11.65Q192.7-8.35 194.9-6.35 197.1-4.35 200.3-4.35L200.3-4.35Q204.9-4.35 206.8-8.2L206.8-8.2 212.95-8.2Q211.7-4.4 208.42-1.98 205.15 0.45 200.3 0.45L200.3 0.45Q196.35 0.45 193.22-1.33 190.1-3.1 188.32-6.33 186.55-9.55 186.55-13.8L186.55-13.8Q186.55-18.05 188.27-21.28 190-24.5 193.13-26.25 196.25-28 200.3-28L200.3-28Q204.2-28 207.25-26.3 210.3-24.6 212-21.53 213.7-18.45 213.7-14.45L213.7-14.45ZM192.5-16.25L207.75-16.25Q207.7-19.4 205.5-21.3 203.3-23.2 200.05-23.2L200.05-23.2Q197.1-23.2 195-21.33 192.9-19.45 192.5-16.25L192.5-16.25ZM242.3 0.45Q239.05 0.45 236.47-0.73 233.9-1.9 232.4-3.93 230.9-5.95 230.8-8.45L230.8-8.45 236.7-8.45Q236.85-6.7 238.37-5.53 239.9-4.35 242.2-4.35L242.2-4.35Q244.6-4.35 245.92-5.28 247.25-6.2 247.25-7.65L247.25-7.65Q247.25-9.2 245.77-9.95 244.3-10.7 241.1-11.6L241.1-11.6Q238-12.45 236.05-13.25 234.1-14.05 232.67-15.7 231.25-17.35 231.25-20.05L231.25-20.05Q231.25-22.25 232.55-24.08 233.85-25.9 236.27-26.95 238.7-28 241.85-28L241.85-28Q246.55-28 249.42-25.63 252.3-23.25 252.5-19.15L252.5-19.15 246.8-19.15Q246.65-21 245.3-22.1 243.95-23.2 241.65-23.2L241.65-23.2Q239.4-23.2 238.2-22.35 237-21.5 237-20.1L237-20.1Q237-19 237.8-18.25 238.6-17.5 239.75-17.07 240.9-16.65 243.15-16L243.15-16Q246.15-15.2 248.07-14.38 250-13.55 251.4-11.95 252.8-10.35 252.85-7.7L252.85-7.7Q252.85-5.35 251.55-3.5 250.25-1.65 247.88-0.6 245.5 0.45 242.3 0.45L242.3 0.45ZM272.35-22.9L265.65-22.9 265.65-7.65Q265.65-6.1 266.38-5.43 267.1-4.75 268.85-4.75L268.85-4.75 272.35-4.75 272.35 0 267.85 0Q264 0 261.95-1.8 259.9-3.6 259.9-7.65L259.9-7.65 259.9-22.9 256.65-22.9 256.65-27.55 259.9-27.55 259.9-34.4 265.65-34.4 265.65-27.55 272.35-27.55 272.35-22.9ZM283.3-23.55Q284.55-25.65 286.63-26.83 288.7-28 291.55-28L291.55-28 291.55-22.1 290.1-22.1Q286.75-22.1 285.03-20.4 283.3-18.7 283.3-14.5L283.3-14.5 283.3 0 277.6 0 277.6-27.55 283.3-27.55 283.3-23.55ZM322.05-14.45Q322.05-12.9 321.85-11.65L321.85-11.65 300.8-11.65Q301.05-8.35 303.25-6.35 305.45-4.35 308.65-4.35L308.65-4.35Q313.25-4.35 315.15-8.2L315.15-8.2 321.3-8.2Q320.05-4.4 316.78-1.98 313.5 0.45 308.65 0.45L308.65 0.45Q304.7 0.45 301.57-1.33 298.45-3.1 296.68-6.33 294.9-9.55 294.9-13.8L294.9-13.8Q294.9-18.05 296.63-21.28 298.35-24.5 301.48-26.25 304.6-28 308.65-28L308.65-28Q312.55-28 315.6-26.3 318.65-24.6 320.35-21.53 322.05-18.45 322.05-14.45L322.05-14.45ZM300.85-16.25L316.1-16.25Q316.05-19.4 313.85-21.3 311.65-23.2 308.4-23.2L308.4-23.2Q305.45-23.2 303.35-21.33 301.25-19.45 300.85-16.25L300.85-16.25ZM337.65 0.45Q334.4 0.45 331.83-0.73 329.25-1.9 327.75-3.93 326.25-5.95 326.15-8.45L326.15-8.45 332.05-8.45Q332.2-6.7 333.73-5.53 335.25-4.35 337.55-4.35L337.55-4.35Q339.95-4.35 341.28-5.28 342.6-6.2 342.6-7.65L342.6-7.65Q342.6-9.2 341.13-9.95 339.65-10.7 336.45-11.6L336.45-11.6Q333.35-12.45 331.4-13.25 329.45-14.05 328.03-15.7 326.6-17.35 326.6-20.05L326.6-20.05Q326.6-22.25 327.9-24.08 329.2-25.9 331.63-26.95 334.05-28 337.2-28L337.2-28Q341.9-28 344.78-25.63 347.65-23.25 347.85-19.15L347.85-19.15 342.15-19.15Q342-21 340.65-22.1 339.3-23.2 337-23.2L337-23.2Q334.75-23.2 333.55-22.35 332.35-21.5 332.35-20.1L332.35-20.1Q332.35-19 333.15-18.25 333.95-17.5 335.1-17.07 336.25-16.65 338.5-16L338.5-16Q341.5-15.2 343.43-14.38 345.35-13.55 346.75-11.95 348.15-10.35 348.2-7.7L348.2-7.7Q348.2-5.35 346.9-3.5 345.6-1.65 343.23-0.6 340.85 0.45 337.65 0.45L337.65 0.45ZM364.35 0.45Q361.1 0.45 358.53-0.73 355.95-1.9 354.45-3.93 352.95-5.95 352.85-8.45L352.85-8.45 358.75-8.45Q358.9-6.7 360.43-5.53 361.95-4.35 364.25-4.35L364.25-4.35Q366.65-4.35 367.98-5.28 369.3-6.2 369.3-7.65L369.3-7.65Q369.3-9.2 367.83-9.95 366.35-10.7 363.15-11.6L363.15-11.6Q360.05-12.45 358.1-13.25 356.15-14.05 354.73-15.7 353.3-17.35 353.3-20.05L353.3-20.05Q353.3-22.25 354.6-24.08 355.9-25.9 358.33-26.95 360.75-28 363.9-28L363.9-28Q368.6-28 371.48-25.63 374.35-23.25 374.55-19.15L374.55-19.15 368.85-19.15Q368.7-21 367.35-22.1 366-23.2 363.7-23.2L363.7-23.2Q361.45-23.2 360.25-22.35 359.05-21.5 359.05-20.1L359.05-20.1Q359.05-19 359.85-18.25 360.65-17.5 361.8-17.07 362.95-16.65 365.2-16L365.2-16Q368.2-15.2 370.13-14.38 372.05-13.55 373.45-11.95 374.85-10.35 374.9-7.7L374.9-7.7Q374.9-5.35 373.6-3.5 372.3-1.65 369.93-0.6 367.55 0.45 364.35 0.45L364.35 0.45ZM406 0.45Q402.1 0.45 398.95-1.33 395.8-3.1 394-6.33 392.2-9.55 392.2-13.8L392.2-13.8Q392.2-18 394.05-21.25 395.9-24.5 399.1-26.25 402.3-28 406.25-28L406.25-28Q410.2-28 413.4-26.25 416.6-24.5 418.45-21.25 420.3-18 420.3-13.8L420.3-13.8Q420.3-9.6 418.4-6.35 416.5-3.1 413.23-1.33 409.95 0.45 406 0.45L406 0.45ZM406-4.5Q408.2-4.5 410.13-5.55 412.05-6.6 413.25-8.7 414.45-10.8 414.45-13.8L414.45-13.8Q414.45-16.8 413.3-18.88 412.15-20.95 410.25-22 408.35-23.05 406.15-23.05L406.15-23.05Q403.95-23.05 402.07-22 400.2-20.95 399.1-18.88 398-16.8 398-13.8L398-13.8Q398-9.35 400.28-6.93 402.55-4.5 406-4.5L406-4.5ZM445.2-27.55L450.9-27.55 450.9 0 445.2 0 445.2-3.25Q443.85-1.55 441.68-0.58 439.5 0.4 437.05 0.4L437.05 0.4Q433.8 0.4 431.22-0.95 428.65-2.3 427.18-4.95 425.7-7.6 425.7-11.35L425.7-11.35 425.7-27.55 431.35-27.55 431.35-12.2Q431.35-8.5 433.2-6.53 435.05-4.55 438.25-4.55L438.25-4.55Q441.45-4.55 443.32-6.53 445.2-8.5 445.2-12.2L445.2-12.2 445.2-27.55ZM471.75-22.9L465.05-22.9 465.05-7.65Q465.05-6.1 465.77-5.43 466.5-4.75 468.25-4.75L468.25-4.75 471.75-4.75 471.75 0 467.25 0Q463.4 0 461.35-1.8 459.3-3.6 459.3-7.65L459.3-7.65 459.3-22.9 456.05-22.9 456.05-27.55 459.3-27.55 459.3-34.4 465.05-34.4 465.05-27.55 471.75-27.55 471.75-22.9ZM501.95 0.45Q498.05 0.45 494.9-1.33 491.75-3.1 489.95-6.33 488.15-9.55 488.15-13.8L488.15-13.8Q488.15-18 490-21.25 491.85-24.5 495.05-26.25 498.25-28 502.2-28L502.2-28Q506.15-28 509.35-26.25 512.55-24.5 514.4-21.25 516.25-18 516.25-13.8L516.25-13.8Q516.25-9.6 514.35-6.35 512.45-3.1 509.18-1.33 505.9 0.45 501.95 0.45L501.95 0.45ZM501.95-4.5Q504.15-4.5 506.07-5.55 508-6.6 509.2-8.7 510.4-10.8 510.4-13.8L510.4-13.8Q510.4-16.8 509.25-18.88 508.1-20.95 506.2-22 504.3-23.05 502.1-23.05L502.1-23.05Q499.9-23.05 498.02-22 496.15-20.95 495.05-18.88 493.95-16.8 493.95-13.8L493.95-13.8Q493.95-9.35 496.23-6.93 498.5-4.5 501.95-4.5L501.95-4.5ZM533.45-27.55L533.45-22.9 528.35-22.9 528.35 0 522.6 0 522.6-22.9 519.35-22.9 519.35-27.55 522.6-27.55 522.6-29.5Q522.6-34.25 525.13-36.43 527.65-38.6 533.05-38.6L533.05-38.6 533.05-33.85Q530.45-33.85 529.4-32.88 528.35-31.9 528.35-29.5L528.35-29.5 528.35-27.55 533.45-27.55ZM564.85-22.9L558.15-22.9 558.15-7.65Q558.15-6.1 558.88-5.43 559.6-4.75 561.35-4.75L561.35-4.75 564.85-4.75 564.85 0 560.35 0Q556.5 0 554.45-1.8 552.4-3.6 552.4-7.65L552.4-7.65 552.4-22.9 549.15-22.9 549.15-27.55 552.4-27.55 552.4-34.4 558.15-34.4 558.15-27.55 564.85-27.55 564.85-22.9ZM573-31.2Q571.45-31.2 570.4-32.25 569.35-33.3 569.35-34.85L569.35-34.85Q569.35-36.4 570.4-37.45 571.45-38.5 573-38.5L573-38.5Q574.5-38.5 575.55-37.45 576.6-36.4 576.6-34.85L576.6-34.85Q576.6-33.3 575.55-32.25 574.5-31.2 573-31.2L573-31.2ZM570.1-27.55L575.8-27.55 575.8 0 570.1 0 570.1-27.55ZM581.4-13.8Q581.4-18.05 583.13-21.28 584.85-24.5 587.9-26.25 590.95-28 594.9-28L594.9-28Q599.9-28 603.18-25.63 606.45-23.25 607.6-18.85L607.6-18.85 601.45-18.85Q600.7-20.9 599.05-22.05 597.4-23.2 594.9-23.2L594.9-23.2Q591.4-23.2 589.33-20.73 587.25-18.25 587.25-13.8L587.25-13.8Q587.25-9.35 589.33-6.85 591.4-4.35 594.9-4.35L594.9-4.35Q599.85-4.35 601.45-8.7L601.45-8.7 607.6-8.7Q606.4-4.5 603.1-2.02 599.8 0.45 594.9 0.45L594.9 0.45Q590.95 0.45 587.9-1.33 584.85-3.1 583.13-6.33 581.4-9.55 581.4-13.8L581.4-13.8ZM636.9-27.55L624.2-13.75 636.9 0 629.2 0 619-11.85 619 0 613.3 0 613.3-37 619-37 619-15.5 629-27.55 636.9-27.55ZM666.25-14.45Q666.25-12.9 666.05-11.65L666.05-11.65 645-11.65Q645.25-8.35 647.45-6.35 649.65-4.35 652.85-4.35L652.85-4.35Q657.45-4.35 659.35-8.2L659.35-8.2 665.5-8.2Q664.25-4.4 660.98-1.98 657.7 0.45 652.85 0.45L652.85 0.45Q648.9 0.45 645.78-1.33 642.65-3.1 640.88-6.33 639.1-9.55 639.1-13.8L639.1-13.8Q639.1-18.05 640.83-21.28 642.55-24.5 645.68-26.25 648.8-28 652.85-28L652.85-28Q656.75-28 659.8-26.3 662.85-24.6 664.55-21.53 666.25-18.45 666.25-14.45L666.25-14.45ZM645.05-16.25L660.3-16.25Q660.25-19.4 658.05-21.3 655.85-23.2 652.6-23.2L652.6-23.2Q649.65-23.2 647.55-21.33 645.45-19.45 645.05-16.25L645.05-16.25ZM685.2-22.9L678.5-22.9 678.5-7.65Q678.5-6.1 679.23-5.43 679.95-4.75 681.7-4.75L681.7-4.75 685.2-4.75 685.2 0 680.7 0Q676.85 0 674.8-1.8 672.75-3.6 672.75-7.65L672.75-7.65 672.75-22.9 669.5-22.9 669.5-27.55 672.75-27.55 672.75-34.4 678.5-34.4 678.5-27.55 685.2-27.55 685.2-22.9ZM709.15-23.45Q710.6-25.45 713.13-26.73 715.65-28 718.75-28L718.75-28Q722.4-28 725.35-26.25 728.3-24.5 730-21.28 731.7-18.05 731.7-13.9L731.7-13.9Q731.7-9.75 730-6.48 728.3-3.2 725.33-1.38 722.35 0.45 718.75 0.45L718.75 0.45Q715.55 0.45 713.08-0.8 710.6-2.05 709.15-4L709.15-4 709.15 0 703.45 0 703.45-37 709.15-37 709.15-23.45ZM725.9-13.9Q725.9-16.75 724.73-18.82 723.55-20.9 721.63-21.98 719.7-23.05 717.5-23.05L717.5-23.05Q715.35-23.05 713.43-21.95 711.5-20.85 710.33-18.75 709.15-16.65 709.15-13.8L709.15-13.8Q709.15-10.95 710.33-8.83 711.5-6.7 713.43-5.6 715.35-4.5 717.5-4.5L717.5-4.5Q719.7-4.5 721.63-5.63 723.55-6.75 724.73-8.9 725.9-11.05 725.9-13.9L725.9-13.9ZM756.6-27.55L762.3-27.55 762.3 0 756.6 0 756.6-3.25Q755.25-1.55 753.08-0.58 750.9 0.4 748.45 0.4L748.45 0.4Q745.2 0.4 742.63-0.95 740.05-2.3 738.58-4.95 737.1-7.6 737.1-11.35L737.1-11.35 737.1-27.55 742.75-27.55 742.75-12.2Q742.75-8.5 744.6-6.53 746.45-4.55 749.65-4.55L749.65-4.55Q752.85-4.55 754.73-6.53 756.6-8.5 756.6-12.2L756.6-12.2 756.6-27.55ZM788.7-27.55L794.6-27.55 777.7 12.95 771.8 12.95 777.4-0.45 766.55-27.55 772.9-27.55 780.65-6.55 788.7-27.55ZM801.8-31.2Q800.25-31.2 799.2-32.25 798.15-33.3 798.15-34.85L798.15-34.85Q798.15-36.4 799.2-37.45 800.25-38.5 801.8-38.5L801.8-38.5Q803.3-38.5 804.35-37.45 805.4-36.4 805.4-34.85L805.4-34.85Q805.4-33.3 804.35-32.25 803.3-31.2 801.8-31.2L801.8-31.2ZM798.9-27.55L804.6-27.55 804.6 0 798.9 0 798.9-27.55ZM826-28Q829.25-28 831.83-26.65 834.4-25.3 835.85-22.65 837.3-20 837.3-16.25L837.3-16.25 837.3 0 831.65 0 831.65-15.4Q831.65-19.1 829.8-21.08 827.95-23.05 824.75-23.05L824.75-23.05Q821.55-23.05 819.68-21.08 817.8-19.1 817.8-15.4L817.8-15.4 817.8 0 812.1 0 812.1-27.55 817.8-27.55 817.8-24.4Q819.2-26.1 821.38-27.05 823.55-28 826-28L826-28ZM855.65-28Q858.85-28 861.33-26.73 863.8-25.45 865.2-23.55L865.2-23.55 865.2-27.55 870.95-27.55 870.95 0.45Q870.95 4.25 869.35 7.23 867.75 10.2 864.73 11.9 861.7 13.6 857.5 13.6L857.5 13.6Q851.9 13.6 848.2 10.98 844.5 8.35 844 3.85L844 3.85 849.65 3.85Q850.3 6 852.43 7.33 854.55 8.65 857.5 8.65L857.5 8.65Q860.95 8.65 863.08 6.55 865.2 4.45 865.2 0.45L865.2 0.45 865.2-4.15Q863.75-2.2 861.28-0.88 858.8 0.45 855.65 0.45L855.65 0.45Q852.05 0.45 849.08-1.38 846.1-3.2 844.38-6.48 842.65-9.75 842.65-13.9L842.65-13.9Q842.65-18.05 844.38-21.25 846.1-24.45 849.08-26.23 852.05-28 855.65-28L855.65-28ZM865.2-13.8Q865.2-16.65 864.03-18.75 862.85-20.85 860.95-21.95 859.05-23.05 856.85-23.05L856.85-23.05Q854.65-23.05 852.75-21.98 850.85-20.9 849.68-18.82 848.5-16.75 848.5-13.9L848.5-13.9Q848.5-11.05 849.68-8.9 850.85-6.75 852.78-5.63 854.7-4.5 856.85-4.5L856.85-4.5Q859.05-4.5 860.95-5.6 862.85-6.7 864.03-8.83 865.2-10.95 865.2-13.8L865.2-13.8ZM880.75 0.35Q879.2 0.35 878.15-0.7 877.1-1.75 877.1-3.3L877.1-3.3Q877.1-4.85 878.15-5.9 879.2-6.95 880.75-6.95L880.75-6.95Q882.25-6.95 883.3-5.9 884.35-4.85 884.35-3.3L884.35-3.3Q884.35-1.75 883.3-0.7 882.25 0.35 880.75 0.35L880.75 0.35Z" opacity="1" transform="matrix(1,0,0,1,0,0)" fill="#ffffff" class="undefined-text-1" data-fill-palette-color="secondary" id="text-1"></path></svg></g></svg></g></svg></g></svg></g></svg></g></svg></g></svg></g><g mask="url(#331eae82-f00f-46de-8b0c-afe0d5f1d444)"><g transform="matrix(4.344975561007172, 0, 0, 4.344975561007172, 8.258226202569602, 1.0000000000000142)"><svg xmlns="http://www.w3.org/2000/svg" xmlns:xlink="http://www.w3.org/1999/xlink" version="1.1" x="0" y="0" viewBox="5.113999843597412 21.264001846313477 87.2280044555664 56.43299865722656" enable-background="new 0 0 100 100" xml:space="preserve" height="56.43299865722656" width="87.2280044555664" class="icon-none" data-fill-palette-color="accent" id="none"><g fill="#ba3b0a" data-fill-palette-color="accent"><polygon points="44.094,68.482 88.713,49.997 84.338,39.434 92.342,39.434 92.342,69.295 42.136,69.295 43.674,68.661  " fill="#ffffff" data-fill-palette-color="accent"></polygon><polygon points="29.636,38.283 15.857,43.992 15.857,38.283  " fill="#ffffff" data-fill-palette-color="accent"></polygon></g><g fill="#ba3b0a" data-fill-palette-color="accent"><path d="M81.79 38.283l-7.053-17.019L33.652 38.283l-13.781 5.709L5.114 50.111l3.737 9.026c0.042-0.023 0.086-0.05 0.126-0.063 2.64-1.092 5.662 0.16 6.752 2.797 1.09 2.641-0.162 5.662-2.799 6.755-0.047 0.015-0.092 0.026-0.131 0.045l3.737 9.026 23.049-9.552 1.541-0.636 0.417-0.171 44.619-18.486L81.79 38.283zM33.477 64.547l1.271-0.537 0.645 1.548-1.273 0.544L33.477 64.547zM34.107 62.46l-1.273 0.532-0.643-1.552 1.273-0.539L34.107 62.46zM32.818 59.351l-1.271 0.54-0.645-1.557 1.273-0.532L32.818 59.351zM31.533 56.249l-1.273 0.538-0.645-1.553 1.273-0.54L31.533 56.249zM30.246 53.146l-1.271 0.534-0.645-1.552 1.273-0.533L30.246 53.146zM28.961 50.039l-1.273 0.542-0.642-1.552 1.271-0.538L28.961 50.039zM27.676 46.937l-1.268 0.535-0.65-1.552 1.271-0.538L27.676 46.937zM25.745 42.283l0.645 1.55-1.273 0.542-0.638-1.557L25.745 42.283zM36.679 68.669l-1.273 0.536-0.457-1.108-0.186-0.45 1.271-0.532 0.368 0.883L36.679 68.669z" fill="#ffffff" data-fill-palette-color="accent"></path></g></svg></g></g></svg></g><defs><mask id="00504a44-4bbf-4c6e-bdfa-da9ccfe92f89"><rect width="640" height="400" fill="white"></rect><rect width="348.05760000000004" height="113.44665376744295" fill="black" x="145.97119999999998" y="143.27667311627852" id="transform-me" transform="matrix(1,0,0,1,-122.24000000000001,-76.4)"></rect></mask><mask id="8f304b83-a7cb-4978-8a05-d29150a75dae"><rect width="640" height="400" fill="white"></rect><rect width="348.05760000000004" height="113.69849989418644" fill="black" x="145.97119999999998" y="143.15075005290677" id="transform-me" transform="matrix(1,0,0,1,-122.24000000000001,-76.4)"></rect></mask><mask id="b43aed86-974f-41f6-80e8-01df93f38edb"><rect width="640" height="400" fill="white"></rect><rect width="348.05760000000004" height="112.62939358903951" fill="black" x="145.97119999999998" y="143.68530320548024" id="transform-me" transform="matrix(1,0,0,1,-122.24000000000001,-76.4)"></rect></mask><mask id="9c92f00a-a5e0-4b54-a98d-36ea7ce16158"><rect width="640" height="400" fill="white"></rect><rect width="348.05760000000004" height="107.89858388414049" fill="black" x="145.97119999999998" y="146.05070805792974" id="transform-me" transform="matrix(1,0,0,1,-122.24000000000001,-76.4)"></rect></mask><mask id="331eae82-f00f-46de-8b0c-afe0d5f1d444"><rect width="640" height="400" fill="white"></rect><rect width="348.05760000000004" height="112.7712149340798" fill="black" x="145.97119999999998" y="143.6143925329601" id="transform-me" transform="matrix(1,0,0,1,-122.24000000000001,-76.4)"></rect></mask></defs></svg><rect width="395.52" height="247.2" fill="none" stroke="none" visibility="hidden"></rect></g></svg></g></svg>